<?xml version="1.0" encoding="utf-8"?>
<!-- Generator: Adobe Illustrator 12.0.0, SVG Export Plug-In . SVG Version: 6.00 Build 51448)  -->
<!DOCTYPE svg PUBLIC "-//W3C//DTD SVG 1.1//EN" "http://www.w3.org/Graphics/SVG/1.1/DTD/svg11.dtd" [
	<!ENTITY ns_svg "http://www.w3.org/2000/svg">
	<!ENTITY ns_xlink "http://www.w3.org/1999/xlink">
]>
<svg  version="1.1" id="Layer_1" xmlns="&ns_svg;" xmlns:xlink="&ns_xlink;" width="149.94" height="299.881"
	 viewBox="0 0 149.94 299.881" overflow="visible" enable-background="new 0 0 149.94 299.881" xml:space="preserve">
<g>
	<path d="M149.94,33.387c-0.051-9.196-2.899-17.043-8.547-23.541C135.646,3.199,128.698-0.049,120.552,0H29.388
		c-8.146-0.05-15.094,3.199-20.841,9.846C2.849,16.344,0,24.191,0,33.387v233.057c0,0.249,0,0.549,0,0.85v0.05
		c0,1.05,0.05,2.099,0.2,3.099c0.05,1.1,0.2,2.149,0.45,3.198v-0.1c0.05,0.55,0.15,1.05,0.3,1.6c0.15,0.649,0.3,1.35,0.55,1.999
		H1.45c1.349,4.698,3.749,8.996,7.097,12.845c5.748,6.548,12.695,9.846,20.841,9.896h91.164c8.146-0.051,15.094-3.349,20.842-9.896
		c2.199-2.549,3.948-5.248,5.298-8.146c0-0.05,0-0.05,0-0.05c0.1-0.2,0.2-0.4,0.3-0.55c0-0.051,0-0.051,0-0.051
		c1.949-4.498,2.899-9.396,2.949-14.743V33.387L149.94,33.387z M120.552,2.949c7.247-0.05,13.444,2.899,18.593,8.847
		c5.248,5.947,7.847,13.145,7.847,21.591v7.497H2.899v-7.497c0-8.447,2.599-15.644,7.847-21.591
		c5.148-5.948,11.346-8.896,18.643-8.847H120.552L120.552,2.949z M3.099,270.143c-0.1-0.95-0.15-1.899-0.2-2.899
		c0-0.25,0-0.55,0-0.799v-7.447h144.092v7.447c0,4.897-0.899,9.396-2.699,13.544l0.05-0.1c-0.1,0.2-0.199,0.399-0.3,0.6
		c-0.05,0.05-0.05,0.05-0.05,0.05c-1.199,2.649-2.799,5.148-4.848,7.447c-5.148,5.897-11.346,8.847-18.593,8.896H29.388
		c-7.297-0.05-13.495-2.999-18.643-8.896c-3.049-3.499-5.198-7.397-6.447-11.695h-0.05c-0.15-0.6-0.3-1.199-0.4-1.749
		c-0.05-0.051-0.05-0.051-0.05-0.101c-0.15-0.449-0.2-0.85-0.25-1.299c0-0.051,0-0.051,0-0.101
		C3.349,272.092,3.199,271.142,3.099,270.143L3.099,270.143z M2.899,256.048V43.833h144.092v212.215H2.899L2.899,256.048z"/>
	<polygon points="99.46,23.741 99.46,20.742 50.43,20.742 50.43,23.741 99.46,23.741 	"/>
	<path d="M68.373,270.842c-1.799,1.8-2.699,3.999-2.649,6.548v0.05c-0.05,2.549,0.85,4.698,2.649,6.497
		c1.85,1.85,4.048,2.749,6.647,2.749c2.5,0,4.648-0.899,6.448-2.749c1.849-1.799,2.749-3.948,2.799-6.497v-0.05
		c-0.05-2.549-0.95-4.748-2.799-6.548c-1.8-1.849-3.948-2.749-6.448-2.749C72.421,268.093,70.222,268.993,68.373,270.842
		L68.373,270.842z M68.623,277.439v-0.05c-0.05-1.749,0.55-3.249,1.799-4.498c1.25-1.25,2.799-1.85,4.598-1.85
		c1.7,0,3.149,0.6,4.398,1.85c1.25,1.249,1.899,2.749,1.949,4.498v0.05c-0.05,1.749-0.699,3.198-1.949,4.448
		c-1.249,1.25-2.698,1.85-4.398,1.899c-1.799,0-3.349-0.65-4.598-1.899C69.172,280.638,68.573,279.188,68.623,277.439
		L68.623,277.439z"/>
	<path d="M105.108,108.857c-0.3,0.05-0.55,0.15-0.75,0.35l-9.996,6.047c-2.699-1.549-5.548-2.699-8.547-3.499l-2.799-11.545
		c-0.05-0.35-0.25-0.6-0.5-0.8c-0.3-0.25-0.6-0.35-0.949-0.35H68.423c-0.35,0-0.65,0.1-0.9,0.35c-0.3,0.2-0.5,0.45-0.55,0.8
		l-2.849,11.545c-2.999,0.8-5.848,1.949-8.547,3.499l-10.096-6.147c-0.25-0.15-0.55-0.25-0.8-0.25s-0.5,0.05-0.7,0.2
		c-0.15,0.05-0.3,0.2-0.45,0.35l-9.096,9.096c-0.15,0.15-0.3,0.3-0.35,0.45c-0.15,0.2-0.2,0.45-0.2,0.7c0,0.1,0,0.2,0.05,0.25v0.05
		c0.05,0.15,0.1,0.35,0.2,0.5l6.148,10.146c-1.55,2.699-2.749,5.548-3.499,8.597l-11.545,2.749c-0.35,0.05-0.6,0.25-0.799,0.55
		c-0.25,0.25-0.35,0.55-0.35,0.899v13.145c0,0.35,0.1,0.649,0.35,0.949c0.2,0.25,0.45,0.45,0.799,0.5l11.545,2.849
		c0.8,2.949,1.949,5.798,3.499,8.497l-6.098,10.146c-0.15,0.25-0.25,0.5-0.25,0.75s0.05,0.5,0.2,0.699c0.05,0.15,0.2,0.3,0.35,0.45
		l9.046,9.097c0,0,0,0,0.05,0.05c0.05,0.05,0.05,0.05,0.1,0.1c0.1,0.101,0.2,0.2,0.35,0.3c0.2,0.101,0.45,0.15,0.7,0.15
		c0.05,0,0.15,0,0.25,0h0.05c0.15-0.05,0.35-0.15,0.5-0.2l10.146-6.197c2.649,1.549,5.498,2.699,8.497,3.549l2.799,11.495
		c0.05,0.35,0.25,0.6,0.55,0.85c0.25,0.2,0.55,0.3,0.9,0.3h13.145c0.35,0,0.649-0.1,0.949-0.3c0.25-0.25,0.45-0.5,0.5-0.85
		l2.849-11.495c2.949-0.85,5.798-2,8.497-3.549l10.146,6.147c0.2,0.149,0.45,0.2,0.75,0.2c0.25,0,0.5-0.051,0.7-0.15
		c0.149-0.1,0.3-0.25,0.449-0.399l9.097-9.097c0.15-0.15,0.3-0.3,0.399-0.45c0.101-0.199,0.15-0.449,0.15-0.699c0-0.1,0-0.2,0-0.25
		c-0.05-0.15-0.1-0.35-0.2-0.5l-6.147-10.146c1.55-2.699,2.699-5.548,3.549-8.497l11.545-2.849c0.3-0.05,0.55-0.25,0.8-0.5
		c0.2-0.3,0.3-0.6,0.3-0.949v-13.145c0-0.35-0.1-0.65-0.3-0.899c-0.25-0.3-0.5-0.5-0.8-0.55l-11.545-2.849
		c-0.85-2.999-1.999-5.848-3.549-8.546l6.098-9.946c0.2-0.25,0.3-0.5,0.3-0.85v-0.1c0-0.45-0.149-0.799-0.449-1.049l-9.347-9.296
		c-0.3-0.3-0.649-0.45-1.05-0.45C105.208,108.857,105.158,108.857,105.108,108.857L105.108,108.857z M105.058,112.255l7.647,7.647
		l-5.998,9.896c-0.149,0.25-0.25,0.5-0.25,0.75s0.101,0.55,0.25,0.799c1.75,2.949,2.999,6.048,3.849,9.396
		c0.05,0.25,0.2,0.45,0.4,0.65c0.199,0.2,0.449,0.35,0.699,0.4l11.246,2.799v10.796l-11.246,2.749c-0.25,0.05-0.5,0.199-0.699,0.399
		c-0.2,0.2-0.351,0.45-0.4,0.699c-0.85,3.249-2.099,6.397-3.849,9.347c-0.149,0.25-0.25,0.5-0.25,0.75s0.101,0.55,0.25,0.8
		l5.998,9.896l-7.647,7.647l-9.896-5.998c-0.25-0.149-0.55-0.25-0.8-0.25s-0.5,0.101-0.75,0.25
		c-2.948,1.749-6.098,2.999-9.346,3.849c-0.3,0.05-0.55,0.2-0.7,0.399c-0.199,0.2-0.35,0.45-0.399,0.7l-2.749,11.245H69.622
		l-2.749-11.245c-0.05-0.25-0.2-0.5-0.35-0.7c-0.25-0.199-0.5-0.35-0.75-0.399c-3.349-0.85-6.448-2.1-9.346-3.849
		c-0.25-0.149-0.55-0.25-0.8-0.25s-0.5,0.101-0.75,0.25l-9.896,6.048l-7.647-7.697l5.998-9.896c0.15-0.25,0.2-0.55,0.2-0.8
		s-0.05-0.5-0.2-0.75c-1.799-2.949-3.099-6.048-3.898-9.347c-0.05-0.249-0.2-0.499-0.4-0.699c-0.2-0.2-0.45-0.35-0.7-0.399
		l-11.245-2.749v-10.796l11.245-2.749c0.25-0.05,0.5-0.2,0.7-0.4c0.2-0.2,0.35-0.45,0.4-0.7c0.8-3.349,2.099-6.447,3.898-9.346
		c0.15-0.25,0.2-0.55,0.2-0.8s-0.05-0.5-0.2-0.75l-6.047-9.946l7.647-7.647l9.896,6.048c0.25,0.15,0.5,0.2,0.75,0.2
		c0.25,0,0.55-0.05,0.8-0.2c2.949-1.799,6.048-3.099,9.346-3.898c0.25-0.05,0.5-0.2,0.7-0.35c0.2-0.2,0.35-0.45,0.4-0.7
		l2.799-11.295h10.796l2.699,11.246c0.05,0.25,0.199,0.5,0.399,0.7c0.2,0.2,0.45,0.35,0.7,0.4c3.298,0.8,6.447,2.099,9.396,3.898
		c0.25,0.15,0.5,0.2,0.75,0.2s0.55-0.05,0.8-0.2L105.058,112.255L105.058,112.255z"/>
	<path d="M74.97,129.398c-5.648-0.05-10.496,1.949-14.544,5.998c-4.048,4.048-6.047,8.896-6.047,14.544s1.999,10.496,6.047,14.544
		c4.048,4.049,8.896,6.048,14.544,6.048s10.496-1.999,14.544-6.048c4.048-4.048,6.047-8.896,6.047-14.544
		s-1.999-10.496-6.047-14.544C85.466,131.348,80.618,129.349,74.97,129.398L74.97,129.398z M62.525,137.496
		c3.449-3.449,7.597-5.148,12.445-5.098c4.848-0.05,8.997,1.649,12.445,5.098s5.147,7.597,5.147,12.445
		c0,4.848-1.699,8.996-5.147,12.445c-3.448,3.448-7.597,5.147-12.445,5.147s-8.997-1.699-12.445-5.147
		c-3.449-3.449-5.148-7.598-5.148-12.445C57.377,145.092,59.076,140.944,62.525,137.496L62.525,137.496z"/>
</g>
</svg>
