<?xml version="1.0" encoding="utf-8"?>
<!-- Generator: Adobe Illustrator 12.0.0, SVG Export Plug-In . SVG Version: 6.00 Build 51448)  -->
<!DOCTYPE svg PUBLIC "-//W3C//DTD SVG 1.1//EN" "http://www.w3.org/Graphics/SVG/1.1/DTD/svg11.dtd" [
	<!ENTITY ns_svg "http://www.w3.org/2000/svg">
	<!ENTITY ns_xlink "http://www.w3.org/1999/xlink">
]>
<svg  version="1.1" id="Layer_1" xmlns="&ns_svg;" xmlns:xlink="&ns_xlink;" width="302.879" height="250.4"
	 viewBox="0 0 302.879 250.4" overflow="visible" enable-background="new 0 0 302.879 250.4" xml:space="preserve">
<g>
	<path d="M165.484,43.932c0.25,0.15,0.5,0.25,0.85,0.25c0.299,0,0.6-0.1,0.85-0.25c6.348-4.648,13.693-6.947,21.941-6.947
		c10.545,0,19.592,3.749,27.088,11.246c1.65,1.649,3.1,3.449,4.449,5.298c0,0,0,0,0.049,0.05c0.15,0.25,0.4,0.45,0.65,0.55
		c0.301,0.1,0.6,0.1,0.9,0.05c4.896-1.149,9.996-1.75,15.344-1.75c17.193,0,31.887,6.098,44.031,18.243
		c3.998,3.999,7.348,8.247,9.996,12.795h3.449c-2.949-5.298-6.697-10.246-11.346-14.894c-12.744-12.745-28.139-19.142-46.131-19.142
		c-5.248,0-10.246,0.55-15.045,1.649c-1.25-1.75-2.648-3.399-4.197-4.948c-8.047-8.097-17.793-12.145-29.238-12.145
		c-8.248,0-15.645,2.149-22.143,6.397c-3.248-7.547-8.047-14.494-14.293-20.792C139.694,6.547,123.95,0,105.508,0
		C87.065,0,71.372,6.547,58.327,19.592C45.332,32.687,38.834,48.48,38.834,66.973c0,2.049,0.1,4.048,0.25,6.047
		c-7.147,2-13.645,5.498-19.492,10.446h4.848c5.048-3.749,10.596-6.347,16.644-7.896c0.35-0.1,0.6-0.3,0.85-0.6
		c0.2-0.3,0.3-0.649,0.25-1c-0.25-2.299-0.35-4.648-0.35-6.997c0-17.693,6.198-32.787,18.643-45.282h-0.05
		C72.871,9.246,87.865,2.999,105.508,2.999c17.593,0,32.587,6.248,45.032,18.693c6.447,6.497,11.195,13.694,14.345,21.541
		C165.033,43.533,165.234,43.782,165.484,43.932L165.484,43.932z"/>
	<path d="M166.633,122.201c-4.197-4.199-9.246-6.298-15.194-6.298c-5.947,0-10.995,2.099-15.193,6.298
		c-4.199,4.198-6.298,9.246-6.298,15.193c0,4.549,1.25,8.598,3.749,12.145c0.7,1.051,1.549,2.051,2.549,3.049
		c3.848,3.85,8.396,5.898,13.694,6.248v8.098h3v-8.098c0.949-0.049,1.898-0.15,2.799-0.299c1.498-0.301,2.947-0.75,4.348-1.35
		h-0.051c2.4-1.051,4.6-2.6,6.598-4.6h0.051c0.949-0.998,1.799-1.998,2.549-2.998v-0.051c2.449-3.547,3.697-7.596,3.697-12.145
		C172.93,131.447,170.832,126.399,166.633,122.201L166.633,122.201z M151.439,118.902c5.149,0,9.497,1.799,13.094,5.398
		c3.6,3.598,5.398,7.946,5.398,13.094c0,3.898-1.049,7.396-3.148,10.445c-0.65,0.9-1.4,1.801-2.25,2.65
		c-1.748,1.748-3.648,3.049-5.697,3.947c-1.148,0.5-2.398,0.9-3.648,1.15c-1.199,0.199-2.449,0.299-3.699,0.299h-0.1
		c-5.098,0-9.446-1.799-13.044-5.396c-0.85-0.85-1.6-1.75-2.199-2.65c-2.149-3.049-3.199-6.547-3.199-10.445
		c0-5.148,1.799-9.496,5.398-13.094C141.943,120.702,146.292,118.902,151.439,118.902L151.439,118.902z"/>
	<path d="M226.609,105.008c-4.199-4.198-9.246-6.297-15.193-6.297c-5.949,0-10.996,2.099-15.195,6.297
		c-4.197,4.198-6.297,9.247-6.297,15.194c0,4.548,1.25,8.597,3.748,12.146l-0.049-0.051c0.748,1.049,1.6,2.1,2.598,3.1v-0.051
		c3.85,3.848,8.396,5.947,13.695,6.297v25.291h2.998v-25.291c0.951-0.1,1.9-0.199,2.799-0.35c1.5-0.299,2.949-0.75,4.299-1.299
		h0.051c2.348-1.1,4.547-2.648,6.547-4.648c0.949-0.949,1.85-2,2.6-3.049v0.051c2.447-3.549,3.697-7.598,3.697-12.146
		C232.906,114.254,230.807,109.206,226.609,105.008L226.609,105.008z M211.416,101.709c5.146,0,9.496,1.799,13.094,5.398
		c3.6,3.599,5.398,7.947,5.398,13.095c0,3.898-1.051,7.347-3.148,10.396c-0.65,0.949-1.4,1.799-2.25,2.648
		c-1.75,1.75-3.648,3.049-5.697,3.998h0.049c-1.199,0.451-2.447,0.85-3.697,1.1c-1.199,0.201-2.449,0.301-3.748,0.352
		c-5.148-0.051-9.496-1.85-13.096-5.449c-0.85-0.85-1.6-1.699-2.199-2.598c0-0.051,0-0.051,0-0.051
		c-2.148-3.049-3.199-6.498-3.199-10.396c0-5.148,1.801-9.496,5.398-13.095C201.92,103.508,206.268,101.709,211.416,101.709
		L211.416,101.709z"/>
	<path d="M295.082,83.466h-3.449c5.447,9.247,8.197,19.643,8.246,31.188c-0.049,9.446-1.898,18.194-5.547,26.19v-0.051
		c-1.049,2.199-2.199,4.35-3.498,6.447c-0.949,1.449-1.949,2.9-3,4.299c-1.199,1.6-2.498,3.148-3.848,4.648
		c-0.75,0.85-1.549,1.648-2.35,2.498c-3.148,3.15-6.496,5.898-9.996,8.248h5.148c2.398-1.85,4.697-3.898,6.947-6.148
		c0.85-0.85,1.699-1.699,2.498-2.598h-0.049c1.449-1.551,2.799-3.199,4.049-4.85v0.051c1.148-1.5,2.199-2.998,3.148-4.549
		c1.35-2.148,2.549-4.398,3.648-6.746c3.848-8.348,5.797-17.494,5.848-27.44C302.828,103.208,300.23,92.813,295.082,83.466
		L295.082,83.466z"/>
	<path d="M24.44,83.466h-4.848c-1.25,1.05-2.499,2.199-3.699,3.449C5.298,97.561,0,110.406,0,125.45
		c0,15.044,5.298,27.839,15.894,38.484c1.049,1.051,2.099,2.051,3.199,3h4.748c-2.049-1.551-3.999-3.25-5.848-5.098
		C7.997,151.789,2.999,139.693,2.999,125.45c0-14.244,4.998-26.39,15.044-36.436C20.092,86.965,22.191,85.116,24.44,83.466
		L24.44,83.466z"/>
	<path d="M91.463,98.81c-5.948,0-10.996,2.1-15.194,6.298c-4.199,4.198-6.298,9.246-6.298,15.194c0,4.548,1.25,8.597,3.749,12.146
		l-0.05-0.051c0.75,1.051,1.6,2.1,2.599,3.1v-0.051c3.848,3.85,8.396,5.947,13.694,6.297v25.191h2.999v-25.191
		c0.949-0.1,1.899-0.199,2.799-0.35c1.499-0.299,2.949-0.75,4.298-1.299h0.05c2.349-1.1,4.548-2.648,6.547-4.648
		c0.95-0.949,1.849-1.998,2.599-3.049v0.051c2.449-3.549,3.698-7.597,3.698-12.146c0-5.948-2.099-10.996-6.297-15.194
		S97.411,98.81,91.463,98.81L91.463,98.81z M78.369,107.207c3.599-3.599,7.947-5.398,13.095-5.398s9.496,1.799,13.095,5.398
		s5.398,7.947,5.398,13.095c0,3.898-1.05,7.347-3.149,10.396c-0.65,0.949-1.399,1.799-2.249,2.648c-1.75,1.75-3.648,3.049-5.698,4
		h0.05c-1.199,0.449-2.449,0.85-3.698,1.1c-1.2,0.199-2.449,0.299-3.749,0.35c-5.148-0.051-9.496-1.85-13.095-5.449
		c-0.85-0.85-1.6-1.699-2.199-2.598c0-0.051,0-0.051,0-0.051c-2.149-3.049-3.199-6.497-3.199-10.396
		C72.971,115.154,74.77,110.806,78.369,107.207L78.369,107.207z"/>
	<path d="M92.963,166.934h-2.999v9.996H53.729c-11.295-0.102-21.242-3.449-29.888-9.996h-4.748
		c9.846,8.547,21.392,12.844,34.636,12.994h36.235v10.445c-5.298,0.35-9.846,2.4-13.694,6.248c-1,0.949-1.849,1.949-2.549,3.1
		c-2.499,3.498-3.748,7.547-3.748,12.145c0,5.898,2.099,10.945,6.297,15.145c4.198,4.197,9.246,6.297,15.194,6.348
		c5.948-0.051,10.996-2.15,15.194-6.348c4.198-4.199,6.297-9.246,6.297-15.145c0-4.598-1.25-8.646-3.698-12.145
		c-0.75-1.1-1.649-2.15-2.599-3.1c-1.999-2-4.198-3.498-6.597-4.549h0.05c-1.399-0.648-2.849-1.049-4.398-1.299h0.05
		c-0.9-0.199-1.849-0.35-2.799-0.4v-10.445h56.977v27.539c-5.298,0.35-9.846,2.398-13.694,6.248c-1,0.949-1.85,1.949-2.549,3.098
		c-2.499,3.5-3.749,7.547-3.749,12.096c0,5.947,2.099,10.996,6.298,15.193c4.198,4.199,9.246,6.299,15.193,6.299
		c5.948,0,10.997-2.1,15.194-6.299c4.199-4.197,6.299-9.246,6.299-15.193c0-4.549-1.25-8.596-3.699-12.096
		c-0.75-1.1-1.65-2.148-2.6-3.098c-1.998-2-4.197-3.5-6.598-4.549h0.051c-1.4-0.65-2.85-1.049-4.398-1.299h0.051
		c-0.9-0.201-1.85-0.35-2.799-0.4v-27.539h56.977v10.346c-5.299,0.35-9.846,2.398-13.695,6.248
		c-0.998,0.949-1.848,1.949-2.549,3.098c-2.498,3.5-3.748,7.547-3.748,12.146c0,5.896,2.1,10.945,6.297,15.143
		c4.199,4.199,9.246,6.299,15.195,6.348c5.947-0.049,10.994-2.148,15.193-6.348c4.197-4.197,6.297-9.246,6.297-15.143
		c0-4.6-1.25-8.646-3.697-12.146c-0.75-1.1-1.65-2.148-2.6-3.098c-2-2-4.199-3.498-6.598-4.549h0.051
		c-1.4-0.65-2.85-1.049-4.398-1.299h0.049c-0.898-0.201-1.848-0.35-2.799-0.4v-10.346h2c6.848,0,13.895,0,21.191,0c0.5,0,1,0,1.5,0
		c14.844,0,27.889-4.348,39.184-12.994h-5.148c-9.945,6.646-21.291,9.996-34.035,9.996c-0.5,0-1,0-1.5,0c-7.297,0-14.344,0-21.191,0
		h-2v-9.996h-2.998v9.996h-56.977v-9.996h-3v9.996H92.963V166.934L92.963,166.934z M138.345,215.813
		c3.598-3.598,7.947-5.396,13.044-5.396h0.101c1.249,0,2.499,0.15,3.649,0.4h0.049c1.25,0.199,2.5,0.549,3.648,1.1
		c2.049,0.85,3.949,2.148,5.697,3.898c0.85,0.85,1.551,1.748,2.199,2.697l0.051,0.051c2.1,2.998,3.148,6.447,3.148,10.346
		c0,5.148-1.799,9.496-5.398,13.096c-3.598,3.598-7.945,5.396-13.094,5.396c-5.147,0-9.496-1.799-13.094-5.396
		c-3.599-3.6-5.398-7.947-5.398-13.096c0-3.898,1.049-7.348,3.199-10.346v-0.051c0.6-0.949,1.349-1.848,2.199-2.648v-0.049V215.813z
		 M95.162,193.723h0.05c1.25,0.199,2.499,0.549,3.648,1.1c2.049,0.85,3.948,2.148,5.698,3.898c0.85,0.85,1.549,1.748,2.199,2.699
		l0.05,0.049c2.099,3,3.149,6.447,3.149,10.396c0,5.098-1.799,9.445-5.398,13.045c-3.599,3.598-7.947,5.398-13.095,5.447
		c-5.148-0.049-9.496-1.85-13.095-5.447c-3.599-3.6-5.398-7.947-5.398-13.045c0-3.949,1.049-7.396,3.199-10.396v-0.049
		c0.6-0.951,1.35-1.85,2.199-2.65v-0.049c3.599-3.6,7.947-5.398,13.044-5.398h0.1C92.763,193.322,94.012,193.473,95.162,193.723
		L95.162,193.723z M211.365,193.223h0.1c1.25,0,2.5,0.15,3.648,0.4h0.051c1.25,0.199,2.498,0.549,3.648,1.1
		c2.049,0.85,3.947,2.148,5.697,3.898c0.85,0.85,1.549,1.748,2.199,2.697l0.051,0.051c2.098,2.998,3.148,6.447,3.148,10.396
		c0,5.098-1.799,9.445-5.398,13.045c-3.598,3.598-7.947,5.396-13.094,5.447c-5.148-0.051-9.496-1.85-13.096-5.447
		c-3.598-3.6-5.398-7.947-5.398-13.045c0-3.949,1.051-7.398,3.199-10.396v-0.051c0.6-0.949,1.35-1.848,2.199-2.648v-0.049
		C201.92,195.021,206.268,193.223,211.365,193.223L211.365,193.223z"/>
</g>
</svg>
