<?xml version="1.0" encoding="utf-8"?>
<!-- Generator: Adobe Illustrator 12.0.0, SVG Export Plug-In . SVG Version: 6.00 Build 51448)  -->
<!DOCTYPE svg PUBLIC "-//W3C//DTD SVG 1.1//EN" "http://www.w3.org/Graphics/SVG/1.1/DTD/svg11.dtd" [
	<!ENTITY ns_svg "http://www.w3.org/2000/svg">
	<!ENTITY ns_xlink "http://www.w3.org/1999/xlink">
]>
<svg  version="1.1" id="Layer_1" xmlns="&ns_svg;" xmlns:xlink="&ns_xlink;" width="149.94" height="299.881"
	 viewBox="0 0 149.94 299.881" overflow="visible" enable-background="new 0 0 149.94 299.881" xml:space="preserve">
<g>
	<path d="M149.94,33.387c-0.051-9.196-2.899-17.043-8.547-23.541C135.646,3.199,128.698-0.049,120.552,0H29.388
		c-8.146-0.05-15.094,3.199-20.841,9.846C2.849,16.344,0,24.191,0,33.387v233.057c0,0.249,0,0.549,0,0.85v0.05
		c0,1.05,0.05,2.099,0.2,3.099c0.05,1.1,0.2,2.149,0.45,3.198v-0.1c0.05,0.55,0.15,1.05,0.3,1.6c0.15,0.649,0.3,1.35,0.55,1.999
		H1.45c1.349,4.698,3.749,8.996,7.097,12.845c5.748,6.548,12.695,9.846,20.841,9.896h91.164c8.146-0.051,15.094-3.349,20.842-9.896
		c2.199-2.549,3.948-5.248,5.298-8.146c0-0.05,0-0.05,0-0.05c0.1-0.2,0.2-0.4,0.3-0.55c0-0.051,0-0.051,0-0.051
		c1.949-4.498,2.899-9.396,2.949-14.743V33.387L149.94,33.387z M139.145,11.796c5.248,5.947,7.847,13.145,7.847,21.591v7.497H2.899
		v-7.497c0-8.447,2.599-15.644,7.847-21.591c5.148-5.948,11.346-8.896,18.643-8.847h91.164
		C127.799,2.899,133.996,5.848,139.145,11.796L139.145,11.796z M146.991,258.997v7.447c0,4.897-0.899,9.396-2.699,13.544l0.05-0.1
		c-0.1,0.2-0.199,0.399-0.3,0.6c-0.05,0.05-0.05,0.05-0.05,0.05c-1.199,2.649-2.799,5.148-4.848,7.447
		c-5.148,5.897-11.346,8.847-18.593,8.896H29.388c-7.297-0.05-13.495-2.999-18.643-8.896c-3.049-3.499-5.198-7.397-6.447-11.695
		h-0.05c-0.15-0.6-0.3-1.199-0.4-1.749c-0.05-0.051-0.05-0.051-0.05-0.101c-0.15-0.449-0.2-0.85-0.25-1.299c0-0.051,0-0.051,0-0.101
		c-0.2-0.949-0.35-1.899-0.45-2.898c-0.1-0.95-0.15-1.899-0.2-2.899c0-0.249,0-0.55,0-0.799v-7.447H146.991L146.991,258.997z
		 M146.991,43.833v212.215H2.899V43.833H146.991L146.991,43.833z"/>
	<polygon points="50.43,20.742 50.43,23.741 99.46,23.741 99.46,20.742 50.43,20.742 	"/>
	<path d="M84.267,277.439v-0.05c-0.05-2.549-0.95-4.748-2.799-6.548c-1.8-1.849-3.948-2.749-6.448-2.749
		c-2.599,0-4.798,0.9-6.647,2.749c-1.799,1.8-2.699,3.999-2.649,6.548v0.05c-0.05,2.549,0.85,4.698,2.649,6.497
		c1.85,1.85,4.048,2.749,6.647,2.749c2.5,0,4.648-0.899,6.448-2.749C83.316,282.138,84.217,279.988,84.267,277.439L84.267,277.439z
		 M79.418,281.888c-1.249,1.25-2.698,1.85-4.398,1.899c-1.799,0-3.349-0.65-4.598-1.899c-1.25-1.25-1.849-2.699-1.799-4.448v-0.05
		c-0.05-1.749,0.55-3.249,1.799-4.498c1.25-1.25,2.799-1.85,4.598-1.85c1.7,0,3.149,0.6,4.398,1.85
		c1.25,1.249,1.899,2.749,1.949,4.498v0.05C81.317,279.188,80.668,280.638,79.418,281.888L79.418,281.888z"/>
</g>
</svg>
