<?xml version="1.0" encoding="utf-8"?>
<!-- Generator: Adobe Illustrator 12.0.0, SVG Export Plug-In . SVG Version: 6.00 Build 51448)  -->
<!DOCTYPE svg PUBLIC "-//W3C//DTD SVG 1.1//EN" "http://www.w3.org/Graphics/SVG/1.1/DTD/svg11.dtd" [
	<!ENTITY ns_svg "http://www.w3.org/2000/svg">
	<!ENTITY ns_xlink "http://www.w3.org/1999/xlink">
]>
<svg  version="1.1" id="Layer_1" xmlns="&ns_svg;" xmlns:xlink="&ns_xlink;" width="299.88" height="299.881"
	 viewBox="0 0 299.88 299.881" overflow="visible" enable-background="new 0 0 299.88 299.881" xml:space="preserve">
<g>
	<path d="M246.901,151.439v48.48H199.92v99.961h99.96V199.92h-49.98V148.44h-98.46V99.96h48.48V0H99.96v99.96h48.48v48.48H49.98
		v51.479H0v99.961h99.96V199.92H52.979v-48.48h95.462V248.5h2.999v-97.061H246.901L246.901,151.439z M202.919,202.918h43.982v45.533
		h2.998v-45.533h46.981v93.963h-93.962V202.918L202.919,202.918z M196.921,2.999v93.963h-93.962V2.999H196.921L196.921,2.999z
		 M52.979,202.918h43.982v93.963H2.999v-93.963H49.98V248.5h2.999V202.918L52.979,202.918z"/>
</g>
</svg>
