<?xml version="1.0" encoding="utf-8"?>
<!-- Generator: Adobe Illustrator 12.0.0, SVG Export Plug-In . SVG Version: 6.00 Build 51448)  -->
<!DOCTYPE svg PUBLIC "-//W3C//DTD SVG 1.1//EN" "http://www.w3.org/Graphics/SVG/1.1/DTD/svg11.dtd" [
	<!ENTITY ns_svg "http://www.w3.org/2000/svg">
	<!ENTITY ns_xlink "http://www.w3.org/1999/xlink">
]>
<svg  version="1.1" id="Layer_1" xmlns="&ns_svg;" xmlns:xlink="&ns_xlink;" width="379.998" height="139.145"
	 viewBox="0 0 379.998 139.145" overflow="visible" enable-background="new 0 0 379.998 139.145" xml:space="preserve">
<g>
	<path d="M272.441,39.734c-2.55-1.35-5.898-2.049-9.946-2.049c-4.448,0-7.847,0.75-10.296,2.25
		c-2.399,1.449-3.599,3.448-3.599,5.998l0.05,0.7h9.846v-0.2c0-0.85,0.4-1.399,1.15-1.749c0.749-0.4,1.648-0.6,2.698-0.6
		c1.149,0,2.05,0.3,2.799,0.85c0.7,0.55,1.05,1.299,1.1,2.349v1.3c-4.248,0-7.646,0.25-10.296,0.75
		c-2.648,0.5-4.647,1.45-5.997,2.799c-1.399,1.35-2.1,3.299-2.1,5.948c-0.05,4.948,3.099,7.447,9.347,7.447
		c2.148,0,4.048-0.3,5.598-0.899c1.549-0.6,2.949-1.399,4.248-2.399c0.45,1.049,1.35,1.849,2.6,2.449
		c1.249,0.55,2.849,0.85,4.798,0.85c0.949,0,1.849-0.05,2.698-0.2c0.8-0.15,1.399-0.3,1.8-0.45c0.45-0.15,0.699-0.3,0.75-0.35
		v-5.797h-1.8c-0.55,0-0.949-0.2-1.199-0.55c-0.3-0.4-0.45-0.85-0.4-1.4V46.381C276.239,43.333,274.99,41.083,272.441,39.734
		L272.441,39.734z M259.896,54.278c1.398-0.65,3.498-0.95,6.347-0.95v2.249c0,1.05-0.499,1.949-1.499,2.649
		c-0.949,0.7-2.1,1.049-3.449,1.049c-2.249,0-3.398-0.85-3.398-2.499C257.847,55.728,258.547,54.878,259.896,54.278L259.896,54.278z
		"/>
	<path d="M243.353,64.974V47.731c0-3.249-0.75-5.748-2.299-7.447c-1.55-1.699-3.898-2.549-6.947-2.549
		c-1.649,0-3.149,0.3-4.548,0.85c-1.5,0.649-2.749,1.449-3.799,2.499V28.389h-10.046v36.585h10.046V49.33
		c0-1.2,0.399-2.199,1.199-2.999c0.75-0.8,1.75-1.2,2.999-1.2c1.05,0,1.899,0.35,2.499,1.049c0.55,0.7,0.85,1.6,0.85,2.749v16.043
		H243.353L243.353,64.974z"/>
	<path d="M316.523,42.083l-0.85-3.798h-8.146v36.584h10.046V62.525c1.849,1.999,4.298,2.999,7.446,2.999
		c3.599,0,6.348-1.149,8.297-3.499s2.949-5.798,2.949-10.346c0-4.648-1-8.097-2.949-10.446s-4.748-3.549-8.297-3.549
		C321.321,37.685,318.473,39.134,316.523,42.083L316.523,42.083z M318.572,56.527c-0.749-1.05-1.1-2.449-1.1-4.099v-1.699
		c0-1.649,0.351-2.999,1.1-4.048c0.7-1.05,1.8-1.6,3.299-1.549c2.898,0,4.349,1.699,4.349,5.148v2.649
		c0,3.449-1.45,5.148-4.349,5.198C320.372,58.126,319.272,57.577,318.572,56.527L318.572,56.527z"/>
	<path d="M302.179,38.285l-0.899-0.3c-0.649-0.2-1.35-0.3-2.099-0.3c-1.649,0-3.1,0.4-4.398,1.2c-1.35,0.75-2.3,1.949-2.899,3.499
		l-0.649-4.048h-8.247v26.639h10.047V53.128c0-2.149,0.449-3.749,1.398-4.798c0.9-1.1,2.399-1.649,4.499-1.6h3.248V38.285
		L302.179,38.285z"/>
	<path d="M370.502,107.957l9.496-25.84h-9.846l-4.749,17.693h-0.3l-5.098-17.693H349.21l10.596,26.639
		c-0.499,2.449-1.999,3.648-4.548,3.699h-3.998v5.998c1.649,0.6,3.599,0.898,5.797,0.898c3.599,0,6.397-0.949,8.397-2.898
		C367.453,114.504,369.152,111.705,370.502,107.957L370.502,107.957z"/>
	<path d="M333.217,81.467c-4.648,0-8.297,1.199-10.945,3.549c-2.699,2.35-4.049,5.848-3.999,10.396
		c-0.05,4.547,1.3,8.047,3.999,10.395c2.648,2.35,6.297,3.5,10.945,3.5c4.398,0,7.946-0.949,10.646-2.799
		c2.699-1.9,4.049-4.748,4.049-8.598h-9.347c0,3.049-1.699,4.6-5.147,4.6c-3.449,0-5.148-1.9-5.148-5.648v-2.85
		c0-3.799,1.649-5.697,4.948-5.697s4.948,1.5,4.948,4.549h9.746c0-3.85-1.35-6.697-4.049-8.547
		C341.113,82.416,337.564,81.467,333.217,81.467L333.217,81.467z"/>
	<path d="M311.125,84.066c-1.549-1.75-3.848-2.6-6.947-2.6c-1.849,0-3.648,0.451-5.348,1.301s-3.049,1.949-4.098,3.398l-0.7-4.049
		h-8.196v26.639h10.046V93.113c0-1.201,0.399-2.199,1.149-3c0.75-0.799,1.749-1.199,3.049-1.199c1.05,0,1.849,0.35,2.499,1.049
		c0.55,0.65,0.85,1.6,0.85,2.75v16.043h10.046V91.514C313.425,88.264,312.675,85.766,311.125,84.066L311.125,84.066z"/>
	<path d="M280.987,97.111v-1.699c-0.05-4.699-1.299-8.197-3.849-10.496c-2.549-2.299-6.297-3.449-11.195-3.449
		c-4.648,0-8.297,1.199-10.945,3.549c-2.699,2.35-4.049,5.848-3.998,10.396c-0.051,4.648,1.299,8.146,4.048,10.496
		c2.749,2.248,6.598,3.398,11.546,3.398c4.697,0,8.296-0.9,10.745-2.699c2.449-1.85,3.648-4.348,3.648-7.547h-9.746
		c0,1.199-0.399,2.148-1.149,2.799c-0.8,0.699-2.049,1.049-3.748,1.1c-1.85-0.051-3.199-0.551-4.049-1.5s-1.3-2.398-1.3-4.348
		H280.987L280.987,97.111z M266.344,87.914c1.449,0,2.549,0.4,3.349,1.199c0.749,0.801,1.149,1.9,1.149,3.299h-9.796
		C261.445,89.414,263.194,87.914,266.344,87.914L266.344,87.914z"/>
	<path d="M240.204,77.119c0,0.35-0.25,0.949-0.7,1.799c-0.55,0.9-1.6,1.85-3.198,2.898c-1.149-0.25-2.6-0.35-4.398-0.35
		c-4.148,0-7.447,0.65-9.996,2c-2.499,1.35-3.748,3.598-3.748,6.646c0,1.25,0.399,2.4,1.199,3.5c0.75,1.049,1.749,1.998,3.099,2.848
		c-1.449,0.35-2.699,1.1-3.648,2.148c-1,1.051-1.5,2.199-1.449,3.549c0,0.951,0.25,1.85,0.699,2.65
		c0.45,0.748,1.05,1.449,1.899,2.049c-1.199,0.549-2.199,1.35-2.999,2.398s-1.199,2.25-1.199,3.549c0,1.25,0.3,2.35,0.899,3.348
		c0.6,0.951,1.399,1.75,2.449,2.301c1,0.549,2.099,0.85,3.349,0.85h14.794c1.999,0,3.898-0.35,5.647-1.051
		c1.7-0.699,3.049-1.748,4.099-3.098c1-1.4,1.5-3.049,1.5-4.949c-0.051-2.598-0.8-4.697-2.3-6.246
		c-1.549-1.551-3.748-2.301-6.697-2.301h-9.096c-1.2,0-2-0.148-2.449-0.449c-0.5-0.299-0.75-0.65-0.7-1.1c-0.05-1,1-1.5,3.149-1.5
		h3.848c3.199,0,5.848-0.699,7.997-2.148s3.199-3.549,3.199-6.396c0-1.1-0.25-2.15-0.8-3.15c-0.55-0.998-1.35-1.848-2.35-2.598
		c2.05-0.551,3.599-1.35,4.648-2.449s1.55-2.699,1.55-4.748H240.204L240.204,77.119z M228.009,90.064c0-1.1,0.35-1.9,1.05-2.449
		c0.649-0.6,1.6-0.9,2.749-0.9c1.199,0,2.148,0.301,2.799,0.85c0.699,0.551,1.049,1.4,1.049,2.5s-0.35,1.949-1.049,2.498
		c-0.65,0.551-1.6,0.85-2.799,0.85c-1.25,0-2.149-0.299-2.8-0.85C228.358,92.014,228.009,91.164,228.009,90.064L228.009,90.064z
		 M226.01,109.355c0.5-0.449,1.149-0.648,1.899-0.648h7.847c0.75,0,1.399,0.199,1.949,0.648c0.5,0.451,0.75,1.051,0.75,1.85
		c0,0.75-0.25,1.4-0.8,1.85c-0.5,0.449-1.149,0.65-1.899,0.65h-7.847c-0.75,0-1.35-0.25-1.85-0.701c-0.55-0.449-0.8-1.1-0.8-1.848
		C225.26,110.406,225.51,109.807,226.01,109.355L226.01,109.355z"/>
	<polygon points="80.418,34.786 80.368,34.786 100.46,0 60.276,0 40.184,34.786 40.234,34.786 60.226,69.572 60.326,69.572 
		80.418,104.408 80.268,104.408 60.276,139.094 40.234,104.408 40.184,104.408 50.28,86.965 10.096,86.965 0,104.408 
		20.092,139.145 100.46,139.145 120.552,104.408 120.602,104.408 80.418,34.786 	"/>
	<polygon points="120.652,34.786 120.652,34.836 110.506,52.279 150.689,52.279 160.835,34.836 160.786,34.786 140.694,0 100.51,0 
		120.602,34.786 120.652,34.786 	"/>
	<path d="M191.573,37.885c0.75-0.45,1.899-0.65,3.398-0.65c1.45,0,2.6,0.35,3.399,1c0.699,0.65,1.049,1.5,1.099,2.549v0.2h10.446
		v-0.65c-0.1-3.548-1.55-6.197-4.398-7.997s-6.497-2.699-10.945-2.649c-4.498-0.05-8.247,0.85-11.196,2.649
		c-2.949,1.849-4.398,4.648-4.398,8.447c0,2.549,0.7,4.598,2.049,6.147c1.45,1.549,3.049,2.599,4.898,3.249
		c1.799,0.65,4.148,1.25,6.997,1.899c2.249,0.45,3.898,0.85,4.998,1.299c1.05,0.45,1.549,1.05,1.549,1.899
		c0,0.949-0.449,1.549-1.399,1.899c-0.899,0.25-2.049,0.4-3.498,0.4c-1.949,0-3.398-0.3-4.248-0.85c-0.95-0.55-1.4-1.749-1.35-3.499
		h-10.546c-0.05,4.598,1.449,7.797,4.498,9.596c2.949,1.849,7.197,2.749,12.646,2.749c4.647,0,8.346-1,11.095-2.999
		c2.799-1.949,4.198-4.998,4.198-9.096c-0.05-2.449-0.749-4.348-2.099-5.748c-1.35-1.45-2.899-2.449-4.698-3.049
		c-1.649-0.6-3.948-1.2-6.897-1.799c-2.349-0.45-4.099-0.9-5.197-1.35c-1.05-0.45-1.6-1.1-1.6-1.999
		C190.374,38.834,190.773,38.285,191.573,37.885L191.573,37.885z"/>
	<path d="M201.819,103.857l1.449,4.898h11.796L202.369,74.07h-12.945l-12.645,34.686h11.396l1.449-4.898H201.819L201.819,103.857z
		 M195.622,83.717h0.199l3.648,12.344h-7.547L195.622,83.717L195.622,83.717z"/>
</g>
</svg>
