<?xml version="1.0" encoding="utf-8"?>
<!-- Generator: Adobe Illustrator 12.0.0, SVG Export Plug-In . SVG Version: 6.00 Build 51448)  -->
<!DOCTYPE svg PUBLIC "-//W3C//DTD SVG 1.1//EN" "http://www.w3.org/Graphics/SVG/1.1/DTD/svg11.dtd" [
	<!ENTITY ns_svg "http://www.w3.org/2000/svg">
	<!ENTITY ns_xlink "http://www.w3.org/1999/xlink">
]>
<svg  version="1.1" id="Layer_1" xmlns="&ns_svg;" xmlns:xlink="&ns_xlink;" width="299.88" height="217.363"
	 viewBox="0 0 299.88 217.363" overflow="visible" enable-background="new 0 0 299.88 217.363" xml:space="preserve">
<g>
	<path d="M267.843,2.898v0.05c7.847,0.25,14.544,2.849,20.191,7.797c5.948,5.148,8.896,11.345,8.847,18.643v137.145
		c0.05,7.247-2.898,13.444-8.847,18.593c-5.947,5.248-13.145,7.847-21.591,7.847h-7.447v-0.15h-2.999v0.15H127.898H33.936h-0.5
		c-4.948,0-9.446-0.899-13.545-2.699l0.05,0.05c-0.2-0.1-0.4-0.199-0.6-0.3c-0.05-0.05-0.05-0.05-0.05-0.05
		c-2.649-1.199-5.148-2.799-7.447-4.848c-5.898-5.148-8.847-11.346-8.896-18.593V59.026H0v107.507
		c0,8.146,3.298,15.094,9.896,20.842c2.499,2.199,5.198,3.948,8.146,5.298c0,0,0,0,0.05,0c0.15,0.1,0.35,0.2,0.5,0.3
		c0.05,0,0.05,0,0.1,0c4.448,1.949,9.396,2.898,14.744,2.949h100.36l-18.942,18.892c-0.3,0.3-0.45,0.65-0.45,1.05
		c0,0.4,0.15,0.75,0.45,1.05c0.3,0.3,0.649,0.45,1.049,0.45h67.973c0.4,0,0.75-0.15,1.05-0.45s0.45-0.649,0.45-1.05
		c0-0.399-0.15-0.75-0.45-1.05l-18.893-18.892h100.41c9.196-0.051,17.043-2.899,23.591-8.547c6.247-5.448,9.496-11.896,9.796-19.442
		c0.05-0.45,0.05-0.949,0.05-1.399V29.388c0-0.5,0-0.95-0.05-1.399c-0.3-7.547-3.549-14.044-9.796-19.442
		C283.486,2.849,275.64,0,266.443,0H33.437c-0.3,0-0.6,0-0.9,0h-0.05c-1.05,0-2.099,0.05-3.049,0.2
		c-1.149,0.05-2.199,0.2-3.249,0.45h0.1c-0.55,0.05-1.049,0.15-1.549,0.3c-0.7,0.15-1.399,0.3-2.049,0.55l0.05-0.05
		c-4.748,1.35-8.997,3.749-12.845,7.097C3.298,14.294,0,21.241,0,29.388v29.588h2.949V29.388c0.05-7.297,2.999-13.495,8.896-18.643
		c3.499-3.049,7.397-5.198,11.695-6.448l0.05-0.05c0.55-0.15,1.149-0.3,1.75-0.4c0-0.05,0-0.05,0.05-0.05
		c0.45-0.15,0.85-0.2,1.299-0.25c0.05,0,0.05,0,0.1,0c0.95-0.2,1.899-0.35,2.949-0.45c0.9-0.1,1.849-0.15,2.849-0.2
		c0.15,0,0.25,0,0.35,0c0.15,0,0.35,0,0.5,0H173.88c0.15,0,0.351,0,0.5,0H267.843L267.843,2.898z M137.995,195.922h23.84
		l18.442,18.442h-60.775L137.995,195.922L137.995,195.922z"/>
	<path d="M225.409,53.528c0.301-0.3,0.45-0.65,0.45-1.05c0-0.399-0.149-0.75-0.45-1.049c-0.3-0.3-0.649-0.45-1.049-0.45H52.429
		c-0.4,0-0.75,0.15-1.049,0.45c-0.3,0.3-0.45,0.65-0.45,1.049c0,0.4,0.15,0.75,0.45,1.05c0.3,0.3,0.649,0.45,1.049,0.45H224.36
		C224.76,53.978,225.109,53.828,225.409,53.528L225.409,53.528z"/>
	<path d="M248.4,76.519c0.3-0.3,0.45-0.649,0.45-1.049s-0.15-0.75-0.45-1.05s-0.649-0.45-1.05-0.45H94.412
		c-0.4,0-0.75,0.15-1.05,0.45s-0.45,0.65-0.45,1.05s0.15,0.75,0.45,1.049c0.3,0.3,0.65,0.45,1.05,0.45h152.938
		C247.751,76.969,248.101,76.819,248.4,76.519L248.4,76.519z"/>
	<path d="M245.401,130.498c0.3-0.301,0.45-0.65,0.45-1.05c0-0.4-0.15-0.75-0.45-1.05s-0.649-0.45-1.05-0.45H103.408
		c-0.399,0-0.75,0.15-1.049,0.45s-0.45,0.649-0.45,1.05c0,0.399,0.15,0.749,0.45,1.05c0.3,0.3,0.65,0.449,1.049,0.449h140.943
		C244.752,130.947,245.102,130.798,245.401,130.498L245.401,130.498z"/>
	<path d="M75.37,102.509c0.3,0.3,0.65,0.45,1.049,0.45h72.971c0.4,0,0.75-0.15,1.049-0.45s0.45-0.65,0.45-1.05
		c0-0.399-0.15-0.75-0.45-1.049s-0.649-0.45-1.049-0.45H76.419c-0.399,0-0.75,0.15-1.049,0.45s-0.45,0.65-0.45,1.049
		C74.92,101.859,75.07,102.209,75.37,102.509L75.37,102.509z"/>
	<path d="M149.94,162.535h-0.05c-2.999-0.051-5.548,0.999-7.697,3.099c-2.099,2.148-3.149,4.698-3.099,7.696v0.051
		c-0.05,2.948,1,5.447,3.099,7.547v0.05c2.099,2.049,4.648,3.099,7.697,3.148h0.05c2.949-0.05,5.498-1.1,7.546-3.198v0.05
		c2.149-2.1,3.199-4.648,3.199-7.647c0-2.998-1.05-5.548-3.199-7.696C155.388,163.534,152.889,162.484,149.94,162.535
		L149.94,162.535z M149.94,165.533c2.149-0.05,3.948,0.7,5.448,2.199c1.549,1.55,2.299,3.398,2.299,5.598
		c0,2.149-0.75,3.949-2.299,5.498c-1.5,1.499-3.299,2.249-5.448,2.299h-0.05c-2.199-0.05-4.048-0.8-5.598-2.299
		c-1.5-1.499-2.249-3.299-2.199-5.447v-0.051c-0.05-2.199,0.7-4.048,2.199-5.548l0.05-0.05c1.5-1.499,3.349-2.249,5.548-2.199
		H149.94L149.94,165.533z"/>
</g>
</svg>
